<?xml version="1.0" encoding="UTF-8"?>

<svg xmlns="http://www.w3.org/2000/svg" xmlns:xlink="http://www.w3.org/1999/xlink">
  <defs>
    <!-- icon -->
    <symbol id="bars-3" fill="none" stroke-width="1.5"
      stroke="currentColor">
      <path
        strokeLinecap="round"
        strokeLinejoin="round"
        d="M3.75 6.75h16.5M3.75 12h16.5m-16.5 5.25h16.5"
      />
    </symbol>
    <!-- icon -->
    <symbol id="x-mark" fill="none" stroke-width="1.5"
      stroke="currentColor">
      <path
        strokeLinecap="round"
        strokeLinejoin="round"
        d="M6 18L18 6M6 6l12 12"
      />
    </symbol>
    <!-- icon -->
    <symbol id="chevron-left" fill="none" stroke-width="1.5"
      stroke="currentColor">
      <path
        strokeLinecap="round"
        strokeLinejoin="round"
        d="M15.75 19.5 8.25 12l7.5-7.5"
      />
    </symbol>
    <!-- icon -->
    <symbol id="chevron-right" fill="none" stroke-width="1.5"
      stroke="currentColor">
      <path
        strokeLinecap="round"
        strokeLinejoin="round"
        d="m8.25 4.5 7.5 7.5-7.5 7.5"
      />
    </symbol>
    <!-- icon -->
    <symbol id="spiner" viewBox="-1 -1 25 25">
      <circle
        cx="12"
        cy="12"
        r="10"
        opacity="0.25"
        stroke="currentColor"
        stroke-width="4"
      ></circle>
      <path
        fill="currentColor"
        opacity="0.75"
        d="M4 12a8 8 0 018-8V0C5.373 0 0 5.373 0 12h4zm2 5.291A7.962 7.962 0 014 12H0c0 3.042 1.135 5.824 3 7.938l3-2.647z"
      ></path>
    </symbol>

    <symbol id="arrow-left" fill="none" stroke-width="1.5" stroke="currentColor" class="w-6 h-6">
      <path stroke-linecap="round" stroke-linejoin="round" d="M10.5 19.5 3 12m0 0 7.5-7.5M3 12h18" />
    </symbol>

    <symbol id="heart-solid" viewBox="0 0 24 24" fill="currentColor" class="w-6 h-6">
      <path
        d="M11.645 20.91l-.007-.003-.022-.012a15.247 15.247 0 01-.383-.218 25.18 25.18 0 01-4.244-3.17C4.688 15.36 2.25 12.174 2.25 8.25 2.25 5.322 4.714 3 7.688 3A5.5 5.5 0 0112 5.052 5.5 5.5 0 0116.313 3c2.973 0 5.437 2.322 5.437 5.25 0 3.925-2.438 7.111-4.739 9.256a25.175 25.175 0 01-4.244 3.17 15.247 15.247 0 01-.383.219l-.022.012-.007.004-.003.001a.752.752 0 01-.704 0l-.003-.001z">
      </path>
    </symbol>

    <symbol id="heart-outline" fill="none" viewBox="0 0 24 24" stroke-width="1.5"
      stroke="currentColor" class="w-6 h-6">
      <path stroke-linecap="round" stroke-linejoin="round"
        d="M21 8.25c0-2.485-2.099-4.5-4.688-4.5-1.935 0-3.597 1.126-4.312 2.733-.715-1.607-2.377-2.733-4.313-2.733C5.1 3.75 3 5.765 3 8.25c0 7.22 9 12 9 12s9-4.78 9-12Z" />
    </symbol>


  </defs>
</svg>